<svg width="28" height="26" viewBox="0 0 28 26" fill="none" xmlns="http://www.w3.org/2000/svg">
<path d="M13.8341 2.97829L13.5157 2.71373C11.8085 1.29483 9.94246 0.546116 8.05959 0.500767C6.00565 0.47231 4.09759 1.23586 2.65658 2.69945L13.8341 2.97829ZM13.8341 2.97829L14.1534 2.71495M13.8341 2.97829L14.1534 2.71495M14.1534 2.71495C16.4906 0.787667 19.1602 0.115067 21.6445 0.788797C24.1916 1.48288 26.2061 3.52845 26.8912 6.1292C27.6488 9.00664 26.6846 12.1384 24.1434 14.7226L24.1433 14.7226L14.4552 24.5759C14.4552 24.5759 14.4551 24.5759 14.4551 24.576C14.2803 24.753 14.0557 24.8395 13.8326 24.8395C13.6095 24.8395 13.3848 24.753 13.21 24.576C13.21 24.5759 13.2099 24.5759 13.2099 24.5759L3.5218 14.7226L3.52177 14.7226M14.1534 2.71495L3.52177 14.7226M3.52177 14.7226C-0.686427 10.4432 -0.0379018 5.43993 2.65651 2.69953L3.52177 14.7226Z" stroke="#111928"/>
</svg>
