<svg width="18" height="18" viewBox="0 0 18 18" fill="none" xmlns="http://www.w3.org/2000/svg">
<path d="M11.25 12.375V14.25C11.25 14.9489 11.25 15.2984 11.1358 15.574C10.9836 15.9416 10.6916 16.2336 10.324 16.3858C10.0484 16.5 9.69891 16.5 9 16.5C8.30109 16.5 7.95163 16.5 7.67597 16.3858C7.30843 16.2336 7.01642 15.9416 6.86418 15.574C6.75 15.2984 6.75 14.9489 6.75 14.25V12.375M11.25 12.375C13.2366 11.507 14.625 9.43161 14.625 7.125C14.625 4.0184 12.1066 1.5 9 1.5C5.8934 1.5 3.375 4.0184 3.375 7.125C3.375 9.43161 4.76336 11.507 6.75 12.375M11.25 12.375H6.75" stroke="#282F35" stroke-linecap="round" stroke-linejoin="round"/>
</svg>
