<svg width="22" height="23" viewBox="0 0 22 23" fill="none" xmlns="http://www.w3.org/2000/svg">
<g clip-path="url(#clip0_2481_1695)">
<path d="M5.68391 19.5731H1.69297V6.7211H5.68391V19.5731ZM3.68629 4.96798C2.41012 4.96798 1.375 3.91095 1.375 2.63477C1.375 2.02178 1.61851 1.4339 2.05196 1.00045C2.48541 0.566996 3.0733 0.323486 3.68629 0.323486C4.29928 0.323486 4.88717 0.566996 5.32062 1.00045C5.75407 1.4339 5.99758 2.02178 5.99758 2.63477C5.99758 3.91095 4.96203 4.96798 3.68629 4.96798ZM20.6207 19.5731H16.6384V13.3168C16.6384 11.8258 16.6083 9.91368 14.5634 9.91368C12.4884 9.91368 12.1705 11.5336 12.1705 13.2094V19.5731H8.18383V6.7211H12.0115V8.47423H12.0673C12.6002 7.46446 13.9017 6.39884 15.8434 6.39884C19.8825 6.39884 20.625 9.0586 20.625 12.5133V19.5731H20.6207Z" fill="#393939"/>
</g>
<defs>
<clipPath id="clip0_2481_1695">
<rect width="22" height="22" fill="white" transform="translate(0 0.323486)"/>
</clipPath>
</defs>
</svg>
